<?xml version="1.0" standalone="no"?>
<!DOCTYPE svg PUBLIC "-//W3C//DTD SVG 20010904//EN"
 "http://www.w3.org/TR/2001/REC-SVG-20010904/DTD/svg10.dtd">
<svg version="1.0" xmlns="http://www.w3.org/2000/svg"
 width="1024.000000pt" height="1024.000000pt" viewBox="0 0 1024.000000 1024.000000"
 preserveAspectRatio="xMidYMid meet">

<g transform="translate(0.000000,1024.000000) scale(0.100000,-0.100000)"
fill="#000000" stroke="none">
<path d="M0 6548 c0 -2872 3 -3689 12 -3680 9 9 396 12 1680 12 l1668 0 15
-24 c15 -22 16 -76 9 -520 -4 -273 -8 -495 -10 -493 -2 1 -6 27 -9 57 -4 30
-9 58 -12 64 -3 5 -1 6 5 2 15 -9 16 6 2 20 -6 6 -12 26 -13 45 -1 19 -6 39
-10 46 -4 7 -5 26 -2 42 3 18 1 31 -5 31 -5 0 -10 7 -10 15 0 8 -4 15 -10 15
-5 0 -10 14 -10 30 0 23 -4 30 -20 30 -11 0 -20 3 -20 8 0 4 -14 7 -31 7 -22
0 -34 -7 -44 -25 -8 -14 -14 -21 -15 -16 0 6 -14 -5 -31 -22 -17 -18 -41 -32
-53 -32 -32 0 -44 -12 -48 -45 -2 -23 -9 -31 -26 -33 -16 -2 -22 -8 -18 -18 3
-8 1 -14 -3 -14 -5 0 -11 7 -15 15 -3 8 -11 15 -17 15 -8 0 -9 -4 0 -13 7 -9
8 -24 2 -45 -5 -17 -6 -33 -3 -37 4 -4 -5 -4 -19 0 -31 8 -55 -16 -43 -42 4
-10 8 -33 9 -52 2 -29 0 -32 -10 -18 -7 9 -17 17 -23 17 -6 0 -12 5 -14 12 -3
9 -6 9 -12 0 -4 -7 -2 -12 3 -12 6 0 11 -5 11 -10 0 -6 -7 -10 -16 -8 -12 2
-21 -13 -35 -56 -11 -33 -26 -67 -33 -75 -11 -12 -12 -21 -4 -34 5 -10 7 -25
4 -34 -4 -11 -2 -14 9 -9 19 7 19 5 0 -30 -19 -38 -19 -89 1 -119 16 -24 11
-51 -7 -40 -5 4 -9 1 -9 -4 0 -7 -8 -7 -22 1 -32 18 -39 30 -26 45 16 20 8 21
-42 9 l-45 -11 -3 -57 c-2 -34 1 -58 7 -58 13 0 -6 -55 -25 -71 -8 -6 -14 -20
-14 -30 0 -11 -4 -19 -8 -19 -5 0 -15 -11 -22 -25 -19 -35 -23 -25 -6 11 30
59 46 149 46 252 0 123 -10 170 -60 279 -30 64 -56 100 -121 168 -71 74 -97
93 -174 130 -50 24 -114 47 -142 51 l-51 6 -7 46 c-17 112 -89 238 -164 288
-49 32 -130 54 -201 54 -65 0 -135 -30 -198 -85 -54 -47 -82 -96 -127 -218
-19 -54 -79 -191 -134 -305 -125 -263 -247 -550 -336 -797 -34 -92 -81 -205
-87 -205 -2 0 -4 34 -5 75 -1 43 2 75 7 75 6 0 10 27 10 60 0 53 -2 60 -20 60
-21 0 -28 24 -10 35 6 4 7 11 4 17 -4 6 -7 36 -8 67 -1 56 -1 56 -33 59 l-32
3 14 -28 c34 -64 4 -113 -68 -113 -24 0 -48 5 -55 12 -9 9 -12 9 -12 -2 0 -9
-5 -8 -20 5 -17 15 -20 16 -25 2 -4 -8 -21 -18 -40 -21 -28 -6 -34 -12 -40
-42 -6 -35 -7 -36 -23 -18 -10 11 -23 30 -29 44 -12 25 -12 25 -6 -4 5 -23 3
-27 -8 -20 -8 4 -31 9 -51 9 -39 1 -56 10 -44 22 4 4 11 1 16 -7 5 -8 12 -11
17 -7 18 19 -41 29 -92 17 -43 -10 -63 11 -80 82 -6 24 -11 26 -38 22 -25 -4
-28 -3 -17 5 8 6 24 11 35 12 22 1 15 4 -27 13 -16 4 -28 13 -28 21 0 18 -11
19 -45 3 -14 -6 -25 -17 -25 -25 0 -7 -7 -13 -15 -13 -12 0 -14 -92 -15 -675
l0 -675 3115 0 3115 0 0 1427 c-1 1338 1 1429 17 1440 12 10 88 13 295 13
l278 0 0 -84 0 -83 71 -7 c40 -3 74 -4 76 -2 3 2 9 66 15 143 10 126 13 140
36 165 l25 28 -27 21 c-79 62 -71 166 14 189 l40 11 0 172 c0 151 20 370 35
385 8 8 6 -64 -4 -136 -6 -37 -12 -147 -14 -244 -4 -169 -4 -178 15 -184 26
-8 58 -62 58 -99 0 -23 -10 -41 -38 -68 -43 -42 -52 -45 -52 -17 0 13 7 20 19
20 25 0 51 36 51 71 0 71 -90 100 -137 44 -33 -37 -29 -68 12 -104 l35 -31 -9
-62 c-4 -35 -9 -49 -10 -33 -3 59 -18 1 -25 -94 -3 -52 -11 -123 -17 -158 -11
-62 -6 -91 10 -64 5 7 6 22 3 33 -4 19 0 19 72 16 71 -3 76 -2 76 17 -1 17
-35 197 -55 290 l-7 30 19 -30 c19 -30 42 -140 52 -249 l6 -59 75 2 c41 1 77
4 79 7 3 2 0 37 -6 77 -5 39 -8 74 -6 77 3 3 317 7 699 8 l694 4 0 -85 0 -84
31 -7 c17 -3 51 -6 74 -6 51 0 51 -1 61 158 6 93 4 116 -7 123 -11 7 -9 9 7 9
12 0 27 7 34 15 19 23 23 11 7 -22 -11 -23 -31 -156 -41 -284 -2 -14 -6 -31
-11 -38 -5 -9 -3 -12 6 -9 7 2 16 15 19 29 5 22 11 24 73 27 l67 3 -1 32 c0
18 -8 75 -17 127 -15 85 -19 95 -39 98 -26 4 -30 17 -9 29 8 4 17 25 21 47 7
37 7 38 -14 26 -12 -6 -25 -18 -28 -26 -6 -17 -72 81 -73 108 0 31 23 69 51
84 l28 14 -5 147 c-3 82 -9 204 -14 273 -8 116 -7 140 4 129 7 -7 26 -326 26
-431 0 -99 10 -128 45 -128 22 0 55 -50 55 -84 0 -21 -10 -44 -30 -66 -31 -37
-36 -60 -20 -91 8 -15 22 -19 61 -19 60 0 58 -15 -3 -19 -23 -1 -44 -4 -46 -6
-2 -2 4 -59 14 -127 l18 -123 70 3 c39 3 73 6 75 8 2 2 0 35 -6 74 -5 39 -7
73 -4 74 3 2 132 7 287 11 241 6 282 5 292 -8 10 -12 13 -327 12 -1441 l0
-1426 235 0 235 0 0 5120 0 5120 -5120 0 -5120 0 0 -3692z m5110 2918 c201
-37 411 -170 515 -326 53 -80 132 -250 137 -295 l3 -30 -85 -3 c-124 -4 -124
-4 -150 79 -35 117 -94 196 -200 269 -135 92 -247 123 -450 122 -153 0 -203
-9 -304 -56 -144 -66 -248 -199 -279 -356 l-13 -65 -104 -3 c-57 -1 -109 -1
-116 2 -16 6 25 134 85 261 35 76 55 101 139 185 85 85 110 103 203 149 71 35
132 57 180 66 97 17 344 18 439 1z m2367 -541 c68 -34 138 -110 153 -166 25
-91 -13 -216 -85 -276 -54 -46 -134 -77 -201 -77 -90 0 -183 46 -224 111 -40
63 -54 116 -45 178 13 103 78 198 160 236 63 29 177 26 242 -6z m-2982 -430
c17 -44 43 -102 57 -130 14 -27 65 -147 113 -265 47 -118 121 -289 162 -380
42 -91 99 -217 128 -280 29 -63 88 -198 130 -300 43 -102 86 -202 97 -223 10
-21 54 -124 97 -230 44 -106 98 -237 121 -292 22 -55 91 -226 151 -380 61
-154 142 -352 180 -440 144 -328 159 -363 159 -368 0 -2 -22 -7 -48 -9 -29 -3
-61 -14 -80 -28 l-32 -24 -27 20 c-14 11 -30 27 -35 35 -9 16 -136 314 -213
499 -29 69 -79 188 -112 265 -34 77 -64 151 -68 165 -4 14 -22 54 -40 90 -18
36 -36 76 -40 90 -4 14 -22 57 -40 95 -18 39 -42 90 -53 115 l-21 45 2 -70 2
-70 -42 -3 c-24 -2 -43 -7 -43 -13 0 -5 -9 -9 -21 -9 -19 0 -20 4 -15 43 4 30
4 36 -3 21 -5 -12 -14 -25 -20 -29 -6 -3 -11 -21 -11 -40 0 -25 -5 -35 -20
-40 -14 -4 -20 -14 -19 -33 2 -24 2 -24 6 -4 2 12 9 20 14 17 14 -9 11 -42 -6
-49 -17 -6 -16 -9 124 -374 44 -114 91 -243 104 -287 34 -108 68 -191 129
-311 54 -107 58 -142 15 -130 -12 3 -42 9 -66 13 -37 5 -45 11 -57 40 -8 18
-21 49 -29 70 -18 43 -25 39 -31 -16 -5 -40 10 -86 24 -77 10 6 47 -22 40 -30
-4 -3 -16 -3 -27 1 -24 7 -124 205 -171 339 -32 89 -126 325 -205 511 -26 61
-91 220 -145 355 -90 222 -143 356 -316 800 -31 80 -67 181 -81 225 -14 44
-42 135 -64 202 -21 67 -39 127 -39 135 0 15 -56 136 -73 156 -6 8 -12 23 -14
34 -2 11 -7 27 -12 36 -6 10 -9 -25 -10 -96 -2 -120 12 -192 55 -294 30 -71
31 -131 3 -183 -12 -22 -37 -83 -54 -135 -44 -126 -132 -375 -151 -425 -9 -22
-34 -94 -56 -160 -67 -200 -164 -483 -211 -615 -25 -69 -56 -159 -70 -200 -14
-41 -43 -124 -65 -185 -22 -60 -56 -153 -75 -207 -89 -242 -153 -329 -216
-289 -12 8 -9 15 17 40 18 16 48 63 66 103 35 76 113 296 119 335 2 12 6 26
10 29 4 4 7 15 7 25 0 9 4 19 8 21 13 5 52 109 52 140 0 17 4 27 10 23 6 -3
10 4 9 17 0 13 -3 17 -6 11 -3 -9 -26 -13 -66 -13 -46 0 -75 -6 -111 -25 -27
-14 -55 -25 -63 -25 -7 0 -13 -4 -13 -10 0 -5 -7 -10 -15 -10 -8 0 -20 -9 -27
-20 -7 -11 -21 -20 -30 -20 -13 0 -18 -8 -18 -29 0 -22 -11 -37 -46 -67 l-47
-38 5 32 c2 18 3 32 2 32 -5 0 -33 -64 -63 -145 -59 -162 -83 -221 -112 -279
-35 -71 -35 -74 -6 -78 34 -5 26 -31 -17 -53 -33 -17 -43 -30 -64 -86 l-26
-67 -120 -4 c-67 -3 -125 -2 -129 2 -5 4 3 29 16 56 35 69 62 136 202 504 145
381 302 782 480 1220 70 173 181 448 245 610 65 162 137 338 160 390 46 101
169 408 253 627 l51 132 40 4 c23 2 151 3 285 3 l245 -1 31 -80z m1430 64
c477 -64 874 -294 1166 -674 98 -128 221 -348 276 -495 57 -152 123 -461 123
-580 0 -36 0 -36 -37 -32 -21 2 -43 8 -49 13 -14 11 -24 -32 -24 -102 0 -63
-27 -258 -46 -334 -77 -303 -213 -545 -423 -752 -109 -107 -157 -145 -236
-188 -27 -16 -72 -42 -100 -60 -27 -18 -61 -36 -75 -40 -14 -4 -54 -21 -89
-38 -76 -35 -184 -56 -208 -41 -47 29 -10 57 102 79 101 19 129 31 292 130
306 186 501 438 590 760 41 151 76 341 66 358 -10 17 -23 4 -29 -30 -8 -43
-18 -53 -56 -53 -21 0 -28 5 -28 20 0 11 -4 20 -10 20 -5 0 -10 -22 -10 -50 0
-43 -3 -50 -20 -50 -11 0 -20 5 -20 10 0 6 -9 10 -20 10 -12 0 -20 -7 -20 -16
0 -25 -40 -75 -58 -72 -10 2 -16 -1 -15 -7 0 -5 -5 -16 -13 -23 -8 -7 -14 -9
-15 -5 0 4 -6 -12 -12 -36 -10 -36 -20 -49 -52 -66 -22 -13 -43 -34 -48 -49
-5 -14 -15 -26 -23 -26 -9 0 -12 5 -9 10 3 6 4 10 1 10 -3 0 -10 -9 -16 -20
-9 -16 -8 -18 5 -14 11 5 14 2 9 -12 -22 -67 -78 -149 -96 -138 -4 3 -8 -1 -8
-8 -1 -7 -17 -23 -36 -35 -19 -13 -32 -18 -28 -12 4 7 -1 9 -12 7 -11 -2 -18
-9 -17 -15 1 -6 -5 -10 -15 -9 -10 0 -17 -7 -18 -19 -2 -45 -4 -47 -33 -43
-23 3 -27 1 -24 -13 3 -11 -3 -19 -16 -24 -12 -3 -21 -10 -21 -15 0 -9 -39
-23 -58 -21 -7 1 -12 -2 -11 -6 1 -4 1 -16 0 -26 -1 -14 -5 -16 -19 -8 -14 8
-33 3 -78 -21 -61 -33 -314 -103 -325 -90 -3 4 -29 55 -57 114 l-50 107 36 6
c302 46 536 213 662 470 52 105 93 253 105 375 18 187 -57 450 -179 630 -17
25 -30 46 -29 48 1 1 10 10 18 19 13 13 14 18 3 24 -10 7 -10 9 3 9 8 0 21 -6
28 -12 11 -11 13 -10 6 2 -4 8 9 -2 29 -23 20 -21 48 -61 62 -89 14 -27 28
-48 31 -45 3 3 -8 30 -23 59 -87 164 -250 329 -416 420 -132 71 -298 126 -298
97 0 -4 -7 -15 -16 -23 -17 -18 -74 -22 -74 -6 0 6 -10 10 -22 10 -22 1 -22 2
4 16 17 9 25 20 22 29 -5 13 -44 15 -263 13 -142 0 -234 -4 -206 -8 28 -4 42
-8 33 -8 -10 -1 -18 -4 -18 -6 0 -2 -3 -11 -6 -20 -4 -11 -1 -16 11 -16 13 0
15 -3 6 -13 -6 -8 -8 -17 -4 -20 3 -4 -1 -7 -10 -7 -10 0 -17 7 -17 15 0 19
-10 19 -24 1 -8 -10 -44 -16 -122 -20 l-112 -6 -6 26 c-4 13 -24 63 -46 109
-21 46 -50 110 -64 143 -14 32 -75 166 -136 296 -60 130 -110 237 -110 239 0
9 1124 -4 1195 -14z m-138 -715 c-3 -3 -12 -4 -19 -1 -8 3 -5 6 6 6 11 1 17
-2 13 -5z m315 -167 c10 -17 1 -22 -15 -9 -8 7 -16 10 -19 7 -3 -3 -11 2 -19
11 -13 16 -11 17 16 10 16 -4 33 -13 37 -19z m-5251 -109 c4 -126 22 -233 39
-223 9 5 49 -110 65 -186 12 -57 5 -92 -10 -46 -5 16 -8 18 -11 7 -3 -9 -15
-20 -27 -25 -20 -9 -22 -17 -23 -105 -3 -149 -29 -744 -49 -1085 -12 -213 -26
-679 -23 -778 2 -87 0 -110 -12 -117 -16 -11 -51 -13 -72 -5 -11 4 -13 190
-11 1064 l2 1060 31 97 c17 53 43 157 57 230 25 123 42 167 44 112z m5490 -65
c13 -16 12 -17 -3 -4 -10 7 -18 15 -18 17 0 8 8 3 21 -13z m2290 -239 c31 -9
74 -30 94 -47 51 -42 95 -113 95 -154 0 -31 -2 -33 -34 -33 -33 0 -35 -2 -50
-52 -20 -66 -51 -101 -122 -139 -93 -48 -141 -38 -263 57 -33 25 -64 43 -69
40 -17 -10 -35 62 -28 108 10 64 63 146 120 184 81 54 155 65 257 36z m-6597
-41 c62 -23 116 -72 142 -127 33 -71 32 -96 -5 -96 -33 0 -45 -12 -55 -55 -10
-39 -50 -92 -90 -116 -50 -31 -146 -26 -223 11 -53 25 -63 27 -63 13 0 -13 -3
-14 -11 -6 -6 6 -17 9 -25 6 -39 -15 -58 132 -28 220 46 136 212 205 358 150z
m6024 -99 c28 -20 29 -65 1 -90 -16 -14 -36 -19 -79 -19 -43 0 -63 5 -79 19
-25 23 -28 68 -5 90 21 22 131 22 162 0z m-5318 -14 c33 -33 24 -72 -21 -95
-36 -19 -203 -20 -239 -2 -13 7 -31 24 -39 38 -13 24 -13 29 2 53 17 26 18 26
147 26 117 0 132 -2 150 -20z m3490 7 c19 -9 26 -22 28 -50 4 -41 -10 -64 -44
-77 -12 -5 -166 -10 -344 -12 l-322 -3 -25 29 c-21 24 -24 37 -20 69 3 22 11
44 19 48 22 15 679 11 708 -4z m1831 -326 c15 -18 16 -27 7 -46 -12 -27 -64
-55 -102 -55 -59 0 -90 82 -43 115 32 24 115 15 138 -14z m-5371 -1 c25 -25
26 -61 3 -89 -25 -30 -189 -43 -227 -18 -33 22 -44 72 -21 97 20 22 43 26 148
29 65 1 80 -2 97 -19z m3575 -22 c6 -5 10 -29 10 -54 0 -36 -5 -50 -24 -65
-21 -18 -42 -19 -275 -19 -192 0 -256 3 -270 13 -24 18 -37 91 -20 114 11 16
39 19 241 24 242 6 322 3 338 -13z m-4273 -348 c20 -6 58 -30 83 -53 37 -33
48 -50 52 -83 5 -38 2 -45 -33 -82 -50 -52 -107 -64 -249 -51 -55 5 -105 11
-112 14 -6 2 -14 -1 -16 -8 -8 -21 -36 26 -37 61 0 72 59 158 135 193 44 21
120 24 177 9z m6664 -22 c24 -11 54 -33 68 -47 30 -31 57 -93 48 -108 -7 -10
-48 -18 -161 -30 -30 -3 -92 0 -137 7 -73 10 -87 10 -115 -4 -18 -9 -34 -16
-36 -16 -1 0 -3 19 -3 43 0 144 186 230 336 155z m-2481 -29 c4 -19 2 -41 -6
-55 -12 -23 -15 -24 -146 -24 -74 0 -143 5 -154 10 -19 11 -24 37 -13 78 6 22
9 22 159 22 l153 0 7 -31z m1879 -9 c40 -39 -6 -95 -84 -100 -57 -4 -66 -1
-79 27 -17 38 2 80 43 92 41 13 96 4 120 -19z m-5494 -10 c15 -23 12 -66 -6
-81 -10 -8 -43 -13 -86 -13 -57 0 -73 3 -84 19 -21 28 -17 62 9 80 29 21 153
17 167 -5z m2380 -55 c0 -42 -3 -55 -15 -55 -8 0 -15 5 -15 11 0 5 4 8 8 5 4
-3 8 17 7 45 -1 27 2 49 7 49 4 0 8 -25 8 -55z m-496 -12 c7 -16 30 -68 49
-118 19 -49 53 -126 76 -170 l41 -80 -28 -3 c-15 -2 -32 -8 -37 -12 -6 -5 -35
-6 -65 -2 -92 10 -319 7 -419 -7 -77 -10 -96 -10 -106 1 -13 14 -33 79 -42
135 -5 34 23 140 60 227 l20 48 166 -6 c91 -3 184 -2 206 3 61 13 64 13 79
-16z m-524 -313 c0 -5 -2 -10 -4 -10 -3 0 -8 5 -11 10 -3 6 -1 10 4 10 6 0 11
-4 11 -10z m2665 -80 c3 -5 1 -10 -4 -10 -6 0 -11 5 -11 10 0 6 2 10 4 10 3 0
8 -4 11 -10z m-2788 -149 c-7 -28 8 -31 156 -31 120 0 760 -20 763 -23 1 -1 5
-12 8 -24 12 -39 -56 -44 -534 -41 -493 3 -458 -4 -419 87 22 51 36 68 26 32z
m-3001 -762 c6 -10 5 -203 -1 -289 -9 -123 -16 -194 -19 -198 -6 -6 -15 123
-22 321 -6 173 -5 177 14 177 12 0 24 -5 28 -11z m4041 -257 c88 -45 101 -56
80 -69 -10 -6 -83 -101 -92 -120 0 -1 -27 11 -59 27 -102 52 -216 33 -216 -35
0 -33 29 -51 145 -86 119 -37 161 -57 197 -96 37 -39 50 -78 50 -150 -1 -143
-97 -243 -251 -259 -105 -11 -205 20 -308 99 l-53 39 33 37 c18 20 39 51 46
69 14 33 25 40 37 21 3 -6 38 -26 77 -45 111 -53 209 -45 230 20 9 26 6 32
-17 52 -14 13 -59 33 -99 45 -137 41 -218 95 -258 171 -25 48 -24 104 2 172
23 62 58 97 134 133 44 21 61 24 145 20 88 -3 101 -6 177 -45z m1766 28 c130
-40 251 -164 278 -284 6 -30 10 -92 7 -142 -6 -112 -38 -183 -120 -265 -250
-251 -655 -109 -718 253 -21 118 28 256 120 342 113 105 281 143 433 96z
m-3948 -55 c28 -75 79 -194 190 -450 123 -281 128 -294 112 -301 -8 -3 -54 -4
-102 -2 l-89 3 -25 63 -24 62 -51 2 c-28 1 -103 1 -166 0 l-115 -1 -30 -63
-31 -63 -107 -3 c-59 -1 -107 -1 -107 2 0 2 13 32 29 67 15 35 44 102 64 149
54 130 128 300 198 458 l63 143 84 -3 84 -3 23 -60z m895 37 c127 -38 237
-148 261 -260 16 -77 6 -212 -21 -289 -42 -122 -155 -209 -300 -233 -36 -6
-130 -10 -210 -8 l-145 3 0 408 0 408 180 -6 c121 -4 198 -12 235 -23z m1791
-122 c4 -80 7 -148 8 -152 0 -5 71 -8 157 -8 l156 0 -3 149 -4 149 50 6 c97
11 122 8 129 -16 3 -13 6 -197 6 -410 l0 -388 -90 0 -90 0 0 165 0 165 -160 0
-160 0 0 -165 0 -165 -90 0 -90 0 0 374 c0 205 -3 387 -6 404 l-6 31 53 4 c30
2 72 3 94 3 l40 -1 6 -145z m2249 119 c110 -51 162 -132 163 -253 1 -127 -54
-211 -174 -266 -62 -29 -86 -34 -171 -38 -54 -3 -99 -7 -99 -11 -1 -3 -4 -53
-8 -111 l-6 -105 -89 -3 -89 -3 5 233 c2 128 2 309 -1 402 -6 162 -5 169 14
177 11 5 106 7 210 6 181 -2 193 -3 245 -28z m-6813 -271 c-3 -8 -6 -5 -6 6
-1 11 2 17 5 13 3 -3 4 -12 1 -19z m3471 -151 l3 -97 -168 2 -168 3 -3 92 -3
92 148 4 c81 1 157 3 168 2 18 0 20 -8 23 -98z m752 -1844 c98 -50 161 -162
182 -320 l12 -82 158 2 c151 1 159 2 163 22 30 150 57 215 109 265 l37 35 120
4 c106 3 122 1 140 -15 33 -29 40 -50 29 -79 -14 -37 -65 -55 -153 -55 -48 0
-78 -5 -85 -12 -17 -21 -87 -276 -146 -533 -31 -132 -69 -287 -86 -345 -17
-58 -36 -143 -44 -190 -8 -47 -27 -121 -43 -165 l-28 -80 -523 0 -522 0 -15
40 c-8 22 -16 54 -17 70 -3 30 -2 30 57 36 33 4 249 4 480 1 390 -5 422 -4
438 12 9 10 17 29 17 44 1 15 7 44 14 64 12 32 11 38 -3 43 -9 4 -249 5 -534
4 -307 -2 -521 1 -527 7 -8 9 -44 132 -132 454 -22 80 -52 189 -67 243 -23 81
-26 100 -15 115 11 15 39 17 273 20 l261 3 0 35 c0 65 22 179 43 224 31 66
105 136 163 154 72 23 174 14 244 -21z m-3195 -16 c23 -6 60 -31 86 -57 37
-36 51 -59 68 -114 27 -86 27 -112 0 -127 -27 -14 -33 -6 -48 61 -26 122 -77
172 -179 178 -62 4 -70 2 -116 -30 -64 -42 -86 -73 -100 -140 -12 -51 -14 -53
-49 -56 -49 -4 -48 11 2 114 52 107 93 151 161 175 57 20 98 19 175 -4z m-47
-141 c44 -23 71 -58 78 -104 l7 -43 -129 3 -129 3 3 25 c6 48 23 76 64 103 48
31 67 33 106 13z m1522 -85 c0 -6 -4 -13 -10 -16 -5 -3 -10 1 -10 9 0 9 5 16
10 16 6 0 10 -4 10 -9z m-1240 -145 c120 -4 162 -18 260 -82 144 -94 229 -278
233 -499 2 -119 -18 -177 -98 -289 -56 -79 -177 -180 -233 -195 -33 -10 -39
-8 -54 12 -18 23 -91 188 -85 193 1 2 27 15 56 31 59 31 120 106 140 174 31
103 4 222 -69 302 -70 77 -107 90 -269 97 l-134 5 -57 125 c-32 69 -56 128
-54 131 4 6 74 5 364 -5z m-400 -103 c24 -60 73 -169 108 -243 215 -452 332
-725 332 -774 0 -5 -53 -6 -127 -2 -144 7 -140 5 -173 95 -26 68 -118 276
-159 356 -16 33 -42 94 -57 135 -29 82 -144 323 -151 316 -2 -2 3 -21 12 -42
10 -22 19 -79 22 -130 6 -90 5 -93 -35 -180 -81 -179 -130 -300 -142 -354 -7
-30 -22 -86 -34 -125 l-21 -70 -142 -3 c-134 -2 -143 -1 -143 16 0 35 257 656
375 907 28 61 60 131 70 158 l18 47 101 0 102 0 44 -107z m1295 -42 c-6 -5
-25 10 -25 20 0 5 6 4 14 -3 8 -7 12 -15 11 -17z m-898 -217 c77 -26 125 -84
139 -171 12 -75 -49 -213 -99 -227 -34 -9 -57 26 -57 88 0 28 5 58 10 66 6 10
10 11 10 3 0 -15 56 -18 64 -4 7 11 -28 24 -69 26 -16 1 -43 2 -58 3 -16 1
-30 9 -34 20 -3 9 -25 59 -49 111 -24 51 -44 95 -44 97 0 11 146 2 187 -12z
m898 -49 c31 -30 32 -63 4 -110 -21 -34 -24 -36 -71 -34 -60 3 -78 18 -78 67
1 83 92 131 145 77z m-1421 -220 l16 -25 -35 0 c-36 0 -46 15 -23 38 17 17 24
15 42 -13z m1403 -87 c30 -28 30 -73 1 -92 -33 -21 -97 -24 -108 -6 -15 24
-11 82 7 102 22 25 71 23 100 -4z m-1330 -50 c46 -74 93 -169 87 -179 -3 -5
-79 -9 -170 -9 -150 0 -164 2 -164 18 0 16 60 178 75 202 3 5 37 10 75 10 l70
0 27 -42z m945 -117 c-9 -16 -18 -28 -21 -26 -4 5 27 55 34 55 2 0 -4 -13 -13
-29z m-1847 -1 l40 -7 -35 -1 c-19 -1 -46 6 -60 14 -16 10 -18 13 -5 8 11 -4
38 -10 60 -14z m1809 -62 c-27 -32 -85 -96 -114 -127 -14 -15 -40 -33 -57 -40
-18 -7 -33 -17 -33 -21 0 -4 -10 -10 -21 -13 -26 -7 -21 -2 52 51 31 22 83 70
115 106 32 36 63 65 68 66 5 0 1 -10 -10 -22z m-777 -160 c43 -89 38 -100 -20
-41 -41 40 -42 45 -25 72 15 25 20 22 45 -31z m-399 8 c-1 -14 -5 -23 -9 -20
-4 2 -9 -5 -12 -16 -5 -18 -1 -22 19 -19 4 0 10 -5 14 -11 5 -8 16 -4 35 14
26 25 33 26 89 20 34 -4 63 -11 65 -17 2 -5 12 -17 22 -25 11 -9 19 -21 19
-26 0 -5 -3 -7 -6 -3 -4 3 -13 -1 -22 -9 -11 -12 -12 -18 -3 -23 8 -5 9 -19 3
-47 -7 -37 -10 -39 -49 -42 -40 -3 -43 -1 -62 36 -23 45 -64 82 -110 101 -35
15 -39 36 -16 81 19 36 25 38 23 6z m927 -66 c4 -6 -9 -10 -32 -9 -34 1 -35 2
-13 9 35 11 38 11 45 0z m-115 -20 c-8 -5 -22 -9 -30 -9 -10 0 -8 3 5 9 27 12
43 12 25 0z m-1286 -8 c-6 -4 -13 -14 -16 -22 -3 -10 -6 -8 -10 8 -5 18 -2 22
15 22 13 0 17 -3 11 -8z m1781 -22 c10 -11 16 -20 13 -20 -3 0 -13 9 -23 20
-10 11 -16 20 -13 20 3 0 13 -9 23 -20z m-625 -5 c8 -9 14 -63 18 -143 l5
-129 -29 -6 c-38 -7 -49 5 -45 53 2 37 1 39 -33 46 -55 10 -66 1 -66 -50 0
-44 -14 -62 -38 -47 -6 4 -12 57 -14 136 l-3 130 30 0 c29 0 30 -2 33 -47 l3
-48 45 0 44 0 0 54 c0 50 6 62 31 65 4 1 12 -6 19 -14z m-1147 -8 c3 -8 1 -20
-4 -28 -6 -10 -9 -7 -9 14 0 29 5 35 13 14z m121 -16 c22 -24 125 -234 119
-243 -9 -17 -46 -7 -65 17 -16 21 -28 25 -70 25 -41 0 -51 -3 -55 -20 -6 -24
-51 -28 -59 -5 -3 8 8 38 24 67 17 29 37 77 46 106 23 80 30 86 60 53z m354
-9 c44 -20 66 -63 59 -119 -8 -77 -62 -114 -166 -117 l-66 -1 -3 132 -3 133
73 -6 c40 -4 88 -13 106 -22z m404 5 c4 -6 8 -20 8 -30 0 -17 -6 -18 -50 -12
-59 8 -65 -4 -17 -34 37 -23 71 -58 80 -84 8 -23 -57 -97 -86 -97 -22 0 -97
47 -97 61 0 15 35 27 55 18 65 -26 74 9 12 46 -74 43 -87 107 -29 140 31 18
111 13 124 -8z m545 4 c30 -14 48 -31 62 -60 26 -50 26 -87 1 -128 -56 -93
-204 -82 -253 19 -32 65 -4 137 65 171 43 21 74 21 125 -2z m314 -20 c40 -41
40 -89 -2 -130 -29 -29 -49 -36 -91 -33 -13 1 -18 -6 -18 -26 0 -32 -16 -52
-42 -52 -22 0 -21 -4 -22 147 l-1 123 73 0 c68 0 76 -2 103 -29z m1955 -2 c73
-28 94 -49 94 -97 0 -76 -70 -150 -157 -168 -74 -15 -191 60 -214 135 -17 58
2 89 81 129 73 37 98 38 196 1z m759 2 c80 -38 98 -60 97 -116 0 -61 -28 -105
-82 -132 -141 -72 -321 52 -257 176 12 25 139 101 167 101 8 0 42 -13 75 -29z
m-4487 -45 c1 -19 -3 -38 -8 -41 -6 -4 -10 13 -10 40 0 53 16 54 18 1z m675
-52 c27 -5 37 -11 37 -25 0 -16 -8 -19 -50 -19 -47 0 -50 2 -50 25 0 27 5 28
63 19z m37 -119 c13 -14 20 -28 17 -32 -4 -3 -13 1 -20 11 -11 16 -19 16 -82
6 -39 -7 -74 -16 -79 -21 -6 -5 -15 -9 -20 -9 -6 0 11 16 38 35 62 44 111 47
146 10z m-547 -31 c4 -1 12 -2 17 -3 6 0 10 -5 10 -11 0 -5 -3 -9 -7 -8 -5 1
-23 -2 -41 -6 -18 -4 -36 -5 -39 -2 -10 10 29 46 41 38 6 -3 14 -7 19 -8z
m1086 9 c0 -5 -4 -17 -9 -28 -8 -18 -9 -17 -9 8 -1 15 4 27 9 27 6 0 10 -3 9
-7z m-912 -49 c-3 -3 -12 -4 -19 -1 -8 3 -5 6 6 6 11 1 17 -2 13 -5z"/>
<path d="M7265 8777 c-52 -44 -50 -151 4 -199 94 -84 257 36 208 153 -28 67
-156 95 -212 46z"/>
<path d="M4990 6770 c6 -11 13 -20 16 -20 2 0 0 9 -6 20 -6 11 -13 20 -16 20
-2 0 0 -9 6 -20z"/>
<path d="M5016 6692 c-3 -5 1 -9 9 -9 8 0 12 4 9 9 -3 4 -7 8 -9 8 -2 0 -6 -4
-9 -8z"/>
<path d="M5047 6615 c4 -20 33 -58 33 -43 0 7 -31 68 -34 68 -2 0 -1 -11 1
-25z"/>
<path d="M4857 6368 c6 -7 13 -20 16 -28 4 -10 6 -8 6 6 1 12 -6 25 -15 28
-13 5 -14 3 -7 -6z"/>
<path d="M5080 5385 c0 -5 5 -17 10 -25 5 -8 10 -10 10 -5 0 6 -5 17 -10 25
-5 8 -10 11 -10 5z"/>
<path d="M4890 8310 c-8 -14 -8 -26 0 -40 13 -25 24 -26 16 -2 -5 14 -3 13 10
-3 16 -20 16 -20 9 3 -11 38 11 24 24 -15 7 -21 24 -51 37 -68 23 -28 24 -28
15 -5 -22 60 -74 150 -87 150 -7 0 -18 -9 -24 -20z"/>
<path d="M5044 8060 c0 -13 4 -16 10 -10 7 7 7 13 0 20 -6 6 -10 3 -10 -10z"/>
<path d="M5063 8013 c2 -35 5 -37 25 -24 10 6 9 13 -7 32 l-20 24 2 -32z"/>
<path d="M5080 7870 c0 -5 24 -10 54 -10 30 0 58 5 61 10 4 6 -17 10 -54 10
-34 0 -61 -4 -61 -10z"/>
<path d="M5258 7863 c7 -3 16 -2 19 1 4 3 -2 6 -13 5 -11 0 -14 -3 -6 -6z"/>
<path d="M5858 7843 c6 -2 18 -2 25 0 6 3 1 5 -13 5 -14 0 -19 -2 -12 -5z"/>
<path d="M6363 4551 c-49 -23 -87 -75 -109 -148 -22 -76 -2 -144 60 -201 77
-71 177 -80 279 -25 133 71 149 269 28 350 -69 47 -184 57 -258 24z"/>
<path d="M2537 4458 c-2 -13 -23 -64 -45 -114 l-39 -92 51 -6 c66 -8 146 -8
146 0 0 10 -91 218 -100 227 -4 5 -10 -2 -13 -15z"/>
<path d="M3310 4448 c0 -74 3 -175 6 -224 l7 -90 66 4 c127 7 181 35 223 116
42 80 20 217 -43 270 -38 32 -84 46 -181 53 l-78 6 0 -135z"/>
<path d="M7310 4505 c0 -38 -3 -87 -7 -109 l-6 -38 79 4 c97 5 146 26 169 74
14 31 15 37 0 67 -22 48 -50 60 -148 66 l-87 6 0 -70z"/>
<path d="M4795 2376 c-70 -31 -105 -102 -113 -228 l-5 -87 192 0 191 0 0 63
c0 34 -7 87 -16 116 -34 114 -153 179 -249 136z"/>
<path d="M4190 1923 c-1 -5 12 -52 27 -105 l28 -98 149 0 149 0 -7 41 c-4 22
-9 66 -12 98 l-7 58 -90 7 c-121 8 -237 8 -237 -1z"/>
<path d="M4686 1923 l-29 -5 7 -76 c12 -134 -4 -122 162 -122 l143 0 5 33 c3
17 8 55 11 82 4 28 9 60 12 73 l5 22 -143 -1 c-79 -1 -157 -4 -173 -6z"/>
<path d="M5169 1923 c-11 -3 -19 -26 -28 -81 -7 -42 -14 -88 -17 -102 l-5 -25
151 0 c143 0 151 1 155 20 3 11 12 52 20 90 9 39 18 78 21 88 5 16 -6 17 -138
16 -79 -1 -150 -3 -159 -6z"/>
<path d="M4294 1578 c-3 -5 6 -56 21 -114 l28 -104 115 0 114 0 -5 33 c-4 17
-11 68 -17 112 l-12 80 -119 2 c-70 1 -121 -3 -125 -9z"/>
<path d="M4773 1583 c-107 -4 -100 8 -81 -134 l11 -88 124 -3 123 -3 0 37 c0
20 7 72 15 115 8 43 15 79 15 81 0 1 -26 1 -57 0 -32 -1 -100 -4 -150 -5z"/>
<path d="M5155 1581 l-40 -6 -12 -85 c-6 -47 -12 -97 -12 -112 l-1 -28 125 0
c92 0 127 3 129 13 12 41 42 218 38 222 -7 7 -177 4 -227 -4z"/>
<path d="M1958 1698 c-3 -7 -1 -29 3 -47 4 -19 6 -39 3 -43 -3 -4 38 -8 92 -8
90 0 96 1 83 17 -21 27 -74 80 -65 66 5 -9 1 -13 -12 -13 -13 0 -19 6 -18 18
1 13 -8 18 -40 20 -28 2 -43 -1 -46 -10z"/>
<path d="M940 711 c0 -24 18 -37 32 -23 8 8 7 16 -2 27 -17 21 -30 19 -30 -4z"/>
<path d="M1210 736 c0 -25 5 -57 10 -71 9 -23 14 -26 38 -20 90 22 79 135 -13
135 -35 0 -35 0 -35 -44z"/>
<path d="M2160 760 c-27 -27 -25 -52 6 -89 30 -36 61 -39 98 -10 33 26 34 62
1 94 -30 31 -77 33 -105 5z"/>
<path d="M2480 745 c0 -34 2 -36 28 -33 23 3 27 8 27 33 0 25 -4 30 -27 33
-26 3 -28 1 -28 -33z"/>
<path d="M4390 760 c-17 -32 -8 -63 22 -80 46 -25 90 16 72 67 -8 23 -16 29
-46 31 -29 2 -39 -1 -48 -18z"/>
<path d="M5180 760 c-26 -26 -25 -54 2 -80 39 -36 78 -20 78 32 0 27 -30 68
-50 68 -5 0 -19 -9 -30 -20z"/>
<path d="M8897 3202 c-24 -26 -21 -66 7 -99 22 -25 27 -26 45 -15 12 6 29 12
39 12 38 0 56 55 32 101 -15 26 -100 27 -123 1z"/>
<path d="M6935 2680 c27 -12 43 -12 25 0 -8 5 -22 9 -30 9 -10 0 -8 -3 5 -9z"/>
<path d="M7170 2678 c0 -10 24 -9 75 2 38 8 37 8 -17 7 -32 -1 -58 -5 -58 -9z"/>
<path d="M8788 2673 c12 -2 30 -2 40 0 9 3 -1 5 -23 4 -22 0 -30 -2 -17 -4z"/>
<path d="M3166 2245 c-3 -8 -1 -15 3 -15 5 0 11 7 15 15 3 8 1 15 -3 15 -5 0
-11 -7 -15 -15z"/>
<path d="M3130 2220 c0 -5 5 -10 10 -10 6 0 10 5 10 10 0 6 -4 10 -10 10 -5 0
-10 -4 -10 -10z"/>
<path d="M2473 2182 c-45 -35 -55 -107 -23 -159 17 -28 25 -33 59 -33 80 0
122 32 128 97 5 43 2 52 -25 81 -25 27 -37 32 -74 32 -25 0 -52 -7 -65 -18z
m89 -39 c37 -33 11 -103 -38 -103 -28 0 -54 25 -54 51 0 22 42 69 61 69 7 0
21 -7 31 -17z"/>
<path d="M8680 2178 c-31 -21 -35 -30 -38 -71 -3 -40 1 -50 24 -72 36 -33 92
-34 130 -2 37 32 39 96 4 132 -37 37 -78 41 -120 13z m93 -50 c18 -28 -7 -68
-42 -68 -29 0 -41 14 -41 49 0 40 61 55 83 19z"/>
<path d="M7649 2153 c-16 -4 -97 -170 -216 -443 -30 -69 -87 -199 -128 -290
-91 -204 -195 -462 -195 -484 0 -14 22 -16 209 -16 l209 0 39 72 c47 86 47 87
245 87 l127 1 38 -80 37 -80 233 0 233 0 84 75 c102 90 144 146 197 260 49
104 73 222 63 310 -8 77 -47 202 -89 285 -57 112 -214 246 -335 286 -48 15
-100 18 -395 20 -187 1 -347 0 -356 -3z m571 -68 c140 -6 198 -22 280 -77 126
-83 224 -254 246 -424 4 -37 3 -54 -5 -54 -6 0 -11 -17 -11 -39 0 -22 -5 -43
-11 -46 -6 -5 -9 11 -8 44 2 37 -2 56 -14 68 -16 16 -17 15 -17 -20 0 -30 -4
-37 -19 -37 -11 0 -27 -7 -36 -17 -12 -12 -19 -13 -24 -4 -4 7 -15 -15 -25
-51 -23 -83 -56 -139 -109 -182 -56 -46 -131 -78 -146 -63 -24 24 -12 44 33
56 24 6 57 22 73 35 64 54 124 218 109 297 -11 59 -73 178 -113 214 -21 19
-60 42 -88 50 -27 9 -58 21 -69 26 -10 6 -65 10 -121 10 l-102 -1 -54 105
c-63 124 -62 127 46 120 39 -3 122 -7 185 -10z m-321 -72 c18 -43 55 -132 81
-198 26 -66 80 -196 120 -290 99 -236 160 -386 160 -393 0 -4 -7 2 -15 12 -8
11 -15 14 -15 7 0 -7 -4 -10 -9 -7 -11 7 -96 172 -106 206 -8 29 -85 162 -99
172 -5 3 -20 -1 -34 -10 -32 -21 -30 -31 58 -286 51 -150 68 -212 61 -219 -20
-20 -41 16 -101 182 -33 89 -69 183 -81 209 -11 26 -33 81 -49 122 -15 41 -53
127 -83 190 -54 113 -55 114 -50 65 4 -45 -3 -68 -67 -220 -94 -227 -94 -225
-104 -225 -6 0 -1 -7 10 -15 10 -8 14 -15 9 -15 -6 0 -20 -21 -33 -48 -12 -26
-34 -61 -48 -77 l-25 -30 23 45 c13 25 26 47 31 48 4 2 7 13 7 25 -1 22 -1 22
-12 2 -25 -43 -78 -96 -90 -89 -4 3 -8 -1 -8 -8 -1 -7 -7 1 -14 17 -8 17 -10
34 -5 40 5 5 9 16 9 25 0 8 -27 -38 -60 -104 -32 -65 -67 -127 -76 -137 -19
-21 -54 -26 -54 -7 0 26 128 336 293 708 74 168 140 322 146 343 l13 37 92 0
92 0 33 -77z m449 -275 c119 -79 134 -265 31 -381 -52 -60 -90 -64 -109 -14
-7 17 -39 88 -70 157 -32 69 -72 158 -89 198 l-31 74 113 -4 c104 -3 117 -5
155 -30z m-549 -244 c37 -47 24 -74 -35 -74 -33 0 -40 24 -21 66 20 41 29 42
56 8z m-199 -154 c-6 -11 -12 -20 -14 -20 -2 0 -2 9 1 20 3 11 9 20 15 20 5 0
4 -9 -2 -20z m264 -2 c3 -13 6 -26 6 -30 0 -5 -36 -8 -80 -8 -78 0 -80 -1 -95
-29 -11 -22 -12 -30 -3 -33 7 -3 5 -7 -5 -11 -20 -7 -21 0 -6 63 15 65 22 70
104 70 67 0 73 -2 79 -22z m-117 -114 c-3 -3 -12 -4 -19 -1 -8 3 -5 6 6 6 11
1 17 -2 13 -5z m157 -10 c3 -8 2 -12 -4 -9 -6 3 -10 10 -10 16 0 14 7 11 14
-7z m393 -182 c-3 -13 -6 -12 -14 8 -6 14 -13 39 -17 55 -6 28 -5 27 15 -8 11
-21 18 -46 16 -55z"/>
<path d="M7706 1867 c3 -10 9 -15 12 -12 3 3 0 11 -7 18 -10 9 -11 8 -5 -6z"/>
<path d="M2852 1940 c0 -14 2 -19 5 -12 2 6 2 18 0 25 -3 6 -5 1 -5 -13z"/>
<path d="M2870 1920 c0 -5 5 -10 10 -10 6 0 10 5 10 10 0 6 -4 10 -10 10 -5 0
-10 -4 -10 -10z"/>
<path d="M736 1656 c19 -19 34 -44 34 -56 0 -28 -36 -87 -60 -100 -47 -25
-111 -4 -138 45 -8 14 -11 15 -12 5 0 -8 9 -29 20 -47 25 -41 29 -116 8 -140
-8 -10 -18 -30 -20 -45 -5 -29 15 -69 28 -55 4 4 2 13 -4 19 -37 37 6 104 73
115 57 9 135 85 142 139 8 62 -44 154 -87 154 -14 0 -11 -7 16 -34z"/>
<path d="M9153 1672 c25 -27 21 -42 -13 -54 -19 -6 -29 -16 -28 -26 5 -24 -53
-37 -69 -15 -16 20 -17 58 -3 84 18 32 1 21 -20 -13 -11 -18 -20 -43 -20 -56
0 -32 35 -97 62 -116 25 -18 80 -21 107 -6 25 13 51 81 51 130 0 32 -6 43 -33
64 -39 30 -57 34 -34 8z"/>
<path d="M7075 1660 c5 -20 -2 -33 -28 -63 -49 -53 -89 -51 -120 8 l-16 30 -1
-40 c0 -50 29 -99 71 -121 30 -15 35 -15 66 0 71 34 98 139 47 187 l-26 24 7
-25z"/>
<path d="M902 1531 c-11 -6 -9 -10 7 -14 29 -7 27 -41 -4 -65 -28 -22 -34 -66
-10 -76 10 -3 15 1 15 12 0 9 9 32 20 50 11 18 21 47 22 65 2 25 -1 33 -17 35
-11 1 -26 -2 -33 -7z"/>
<path d="M8890 1521 c0 -15 16 -22 34 -15 25 9 19 24 -9 24 -14 0 -25 -4 -25
-9z"/>
<path d="M10 1409 c0 -5 5 -7 10 -4 6 3 10 8 10 11 0 2 -4 4 -10 4 -5 0 -10
-5 -10 -11z"/>
<path d="M9050 1373 c-53 -37 -61 -63 -34 -119 32 -68 108 -84 155 -33 23 24
29 40 29 75 0 39 -4 46 -37 69 -44 29 -79 32 -113 8z m60 -22 c14 -28 13 -31
-14 -31 -27 0 -40 22 -23 39 16 16 25 14 37 -8z"/>
<path d="M7031 1363 c1 -4 -1 -16 -5 -25 -13 -29 -76 -20 -76 10 0 13 -3 12
-20 -3 -11 -10 -20 -29 -20 -43 0 -28 59 -92 85 -92 39 0 96 87 82 124 -6 16
-48 42 -46 29z"/>
<path d="M190 1340 c0 -5 5 -10 10 -10 6 0 10 5 10 10 0 6 -4 10 -10 10 -5 0
-10 -4 -10 -10z"/>
<path d="M8223 873 c-8 -3 -13 -23 -13 -48 0 -24 -3 -46 -8 -48 -4 -3 -27 -7
-52 -8 l-45 -4 3 48 c4 47 4 47 -27 47 l-32 0 3 -132 3 -133 28 -3 c27 -3 27
-2 27 51 0 59 8 67 73 67 26 0 27 -2 27 -55 0 -51 2 -55 24 -55 31 0 33 12 28
158 -4 121 -7 128 -39 115z"/>
<path d="M7188 853 c-28 -31 -126 -238 -118 -247 5 -5 25 -5 44 -2 27 5 36 12
36 26 0 14 7 20 24 20 13 0 38 3 55 6 28 6 32 4 42 -25 9 -25 16 -31 41 -31
26 0 30 3 25 23 -11 46 -106 242 -119 245 -8 1 -22 -5 -30 -15z m38 -109 c4
-17 2 -29 -7 -35 -35 -22 -51 1 -29 42 15 26 28 24 36 -7z"/>
<path d="M7400 818 c0 -29 -3 -90 -7 -136 l-6 -83 64 7 c77 8 106 21 148 69
34 39 39 71 16 115 -24 47 -62 66 -142 74 l-73 6 0 -52z m135 -28 c51 -19 45
-83 -10 -106 -58 -24 -75 -19 -75 20 0 18 3 48 6 65 7 34 29 40 79 21z"/>
<path d="M7829 841 c-16 -16 -29 -34 -29 -39 0 -23 49 -78 78 -88 44 -14 60
-30 44 -46 -9 -9 -18 -9 -37 0 -60 28 -94 -1 -50 -42 35 -32 73 -38 110 -17
76 43 71 110 -10 152 -52 26 -72 59 -37 59 11 0 25 -7 32 -15 16 -20 36 -19
44 1 10 26 7 33 -24 49 -46 24 -87 19 -121 -14z"/>
<path d="M8405 852 c-101 -47 -109 -166 -15 -229 54 -37 104 -29 162 25 43 40
53 83 30 129 -43 83 -104 109 -177 75z m80 -66 c46 -20 56 -58 24 -92 -30 -32
-72 -32 -98 2 -26 33 -27 58 -1 84 24 24 30 24 75 6z"/>
<path d="M8640 730 l0 -130 30 0 c28 0 30 3 30 34 0 34 1 35 47 42 110 16 142
130 48 170 -19 8 -62 14 -95 14 l-60 0 0 -130z m133 49 c16 -26 1 -49 -32 -49
-21 0 -32 6 -36 20 -14 43 44 67 68 29z"/>
<path d="M7667 743 c-4 -3 -7 -14 -7 -23 0 -13 12 -19 46 -24 72 -9 74 -9 74
24 0 30 -1 30 -53 30 -30 0 -57 -3 -60 -7z"/>
</g>
</svg>
